<svg id="Layer_1" data-name="Layer 1" xmlns="http://www.w3.org/2000/svg" viewBox="0 0 496.83 49.17"><g id="text"><path d="M28.7,8.1s-.14,0-.34,0l-.3,0-.16.22-.15.22,0,.52c0,.52,0,.53-.09.65a.74.74,0,0,0-.17.25,2.41,2.41,0,0,1-.16.37,1.24,1.24,0,0,0-.13.45,11.48,11.48,0,0,1-.72,2.51c-.12.34-.27.8-.34,1-.16.54-.27.71-.48.79-.38.12-1.28.36-1.58.41a15.85,15.85,0,0,0-3.15,1,9.7,9.7,0,0,0-3.64,3.1,5.67,5.67,0,0,0-1.5,3.57A11.61,11.61,0,0,0,16,26.06,10.9,10.9,0,0,0,17.7,29.9a6.84,6.84,0,0,0,3.13,2.34c.13,0,.51.19.84.34a6,6,0,0,0,2.12.64.23.23,0,0,1,.15.13c.08.17,0,.29-.24.29s-.43,0-.77.11a1.92,1.92,0,0,1-1,0c-.34-.07-1.87-.3-3-.45a1.4,1.4,0,0,1-.8-.25C18,33,17.93,33,18,33.1s-.56.16-.94,0c-.11-.05-.18-.06-.22,0s-.1,0-.19,0l-.15,0a1.23,1.23,0,0,0-.06.17c-.1.31-1,.6-2.36.77-.52.06-.64.09-.82.22-.46.34-.53.38-.63.4s-.7.17-1,.26a.94.94,0,0,0-.4.21c-.09.1-.16.13-.38.13a1.18,1.18,0,0,0-.77.28.66.66,0,0,1-.32.13c-.16,0-.28.1-.41.35s-.3.32-.85.38a1.94,1.94,0,0,0-1,.27c-.24.12-.67.31-.95.41a3.68,3.68,0,0,0-1,.54,7.27,7.27,0,0,1-1.77,1,2.86,2.86,0,0,0-.71.38,5.33,5.33,0,0,1-.83.44,5,5,0,0,0-.69.31l-.3.18A4.1,4.1,0,0,0,0,41.15a.42.42,0,0,0,.31.44,1.27,1.27,0,0,0,.42-.24,3.59,3.59,0,0,1,1.12-.59,1.19,1.19,0,0,0,.59-.32A1.93,1.93,0,0,1,3.87,40l.3,0,.07-.18c.14-.32.45-.45,2.38-1a4.25,4.25,0,0,0,.81-.38A7,7,0,0,1,8.37,38a5.39,5.39,0,0,0,1.14-.58,1.74,1.74,0,0,1,.5-.2,1.7,1.7,0,0,0,.43-.16,2.08,2.08,0,0,1,.42-.17l.58-.2a6.67,6.67,0,0,1,1-.19,10,10,0,0,0,1.42-.25A5,5,0,0,1,15.57,36a10.58,10.58,0,0,1,1.29.06c.24.06.29.06.41,0S17.52,36,18,36a1.84,1.84,0,0,0,.94-.15,1.19,1.19,0,0,1,1.1,0c.27.13.31.14,1,.1,2.2-.1,3.67-.2,4.14-.26.3,0,1-.12,1.55-.16a10.36,10.36,0,0,0,1.42-.18,2.19,2.19,0,0,1,.79-.09c.53,0,.6.12.14.2a1,1,0,0,0-.27.08c-.05,0,.1.11.33.15a.52.52,0,0,1,.3.12.79.79,0,0,1,.08.68.7.7,0,0,1-.51.36c-.07,0-.13,0-.19.19a2.45,2.45,0,0,1-1,.77.35.35,0,0,0-.22.18,4,4,0,0,1-1,.88,1,1,0,0,0-.33.27,2.11,2.11,0,0,1-.66.59.61.61,0,0,1-.35,0l-.24,0,.17.16.18.16-.18.11a1,1,0,0,1-.35.1c-.19,0-.2,0-.08.17s.08.11,0,.24a.93.93,0,0,1-.25.23c-.17.1-.17.1-.45,0a.77.77,0,0,0-.34-.08c-.1.06,0,.12.16.18a.56.56,0,0,1,.28.17c.07.08.06.11,0,.18a.92.92,0,0,0-.2.35,2.34,2.34,0,0,1-.84,1.11c-.05,0-.05,0,0,.13.12.24.07.44-.18.67s-.23.23-.24.58a1.71,1.71,0,0,1-.13.59c-.15.32-.14.36,0,.54s.16.25,0,.45-.15.18-.11.3a2,2,0,0,1,0,1,9.75,9.75,0,0,0-.13,2.84,6.67,6.67,0,0,1,.07.89,1.42,1.42,0,0,0,.07.52,8.53,8.53,0,0,1,.32,1.16c.32,1.37.46,1.67.78,1.67s.32-.39.2-.7a6.64,6.64,0,0,1-.1-.73,2.37,2.37,0,0,1,0-.86,1.2,1.2,0,0,0,0-.69,1.79,1.79,0,0,1,0-1.09,3,3,0,0,0,.18-1,5.15,5.15,0,0,1,0-1,1.3,1.3,0,0,0,0-.52,1.25,1.25,0,0,1,0-.58c.07-.39.17-.57.31-.57s.14-.06,0-.15-.09-.49,0-.49.09-.09.13-.21a2.47,2.47,0,0,1,.17-.42,5.67,5.67,0,0,0,.24-.64c.08-.24.17-.51.21-.59s.33-.44.42-.44.1-.07.14-.15a.93.93,0,0,1,.28-.28,1.7,1.7,0,0,0,.34-.32,2.38,2.38,0,0,1,.32-.38,17.1,17.1,0,0,0,1.16-1.52,5.39,5.39,0,0,1,2.71-2.09c.37-.12.6-.09.8.13a1.81,1.81,0,0,0,.46.3,4.59,4.59,0,0,1,1.28,1,2.25,2.25,0,0,0,.41.4c.16,0,.29.43.25.74s0,.26,0,.26.17.14.34.85.21.81.36,1a1,1,0,0,1,.15.34,1,1,0,0,0,.32.47A1,1,0,0,1,35,45a.35.35,0,0,0,.1.27.52.52,0,0,1,.13.21,1.78,1.78,0,0,0,.18.27,3.21,3.21,0,0,1,.52,1,1,1,0,0,0,.19.36,2.59,2.59,0,0,1,.44.77,3,3,0,0,0,.21.39,1.48,1.48,0,0,1,.19.46,1.43,1.43,0,0,0,.44.81,6.4,6.4,0,0,1,.42.5,1.37,1.37,0,0,0,.28.33.36.36,0,0,1,.15.11,2.44,2.44,0,0,0,.4.27c.28.16.29.17.49.68a2.37,2.37,0,0,0,.47.81,1,1,0,0,1,.31.47,1.71,1.71,0,0,0,.5.75,2.37,2.37,0,0,1,.36.52,4.12,4.12,0,0,0,.31.54c.15.23.48.79.66,1.14.06.13.13.23.16.23s.13.13.24.28a4.78,4.78,0,0,0,1.14,1.1c.21,0,.33-.13.33-.47s0-.39-.51-.93a3.73,3.73,0,0,1-.41-.59c-.07-.14-.22-.39-.32-.54-.28-.39-1.1-1.76-1.29-2.15-.1-.19-.26-.49-.37-.67a3.46,3.46,0,0,1-.25-.55,4.76,4.76,0,0,0-.74-1.15.61.61,0,0,1-.14-.26,1.9,1.9,0,0,0-.21-.44,2.86,2.86,0,0,1-.46-1.14,3.52,3.52,0,0,0-.35-1.12c-.11-.21-.13-.27-.08-.35s0-.11-.07-.21A1.26,1.26,0,0,1,38,46a.61.61,0,0,0-.31-.48,1.2,1.2,0,0,1-.36-.69c0-.09-.07-.21-.23-.36a1.16,1.16,0,0,1-.26-.34A5.1,5.1,0,0,0,36,42.77a1,1,0,0,1-.3-.41.18.18,0,0,0-.12-.15A.85.85,0,0,1,35.3,42a1.77,1.77,0,0,1-.35-.77c0-.07,0-.09,0-.07s-.09,0-.13-.12l-.09-.24c0-.08,0-.09.05-.06s.09,0,0-.06,0-.2-.08-.35a1.41,1.41,0,0,0-.13-.37.44.44,0,0,1-.07-.2.75.75,0,0,0-.23-.31c-.25-.25-.29-.39-.15-.58s.27-.14.49,0,.11,0,.15-.09a.25.25,0,0,1,.2-.17,1.11,1.11,0,0,0,.39-.23,1.63,1.63,0,0,1,.29-.2s.05,0,.05-.07.44-.48.6-.52a.4.4,0,0,1,.33.1,2,2,0,0,0,1.47.15c.29-.1.49-.09.49,0s0,.08.09,0A1.54,1.54,0,0,1,40,37.59a.72.72,0,0,0,.26.07,1.48,1.48,0,0,1,.39.11l.66.26c.7.27.86.55,1.06,1.82a2.47,2.47,0,0,1-.12,1.87c-.2.43-.26.68-.19.75a1.19,1.19,0,0,0,.64-.24.53.53,0,0,1,.13-.22.6.6,0,0,0,.13-.19,1.27,1.27,0,0,1,.16-.22.51.51,0,0,0,.15-.37.66.66,0,0,1,.08-.3,4.59,4.59,0,0,0,.21-1.8c0-.59,0-.68,0-.76s.19-.11.36.07a.44.44,0,0,0,.24.15,1,1,0,0,1,.62.39.83.83,0,0,0,.28.28.77.77,0,0,1,.28.33.52.52,0,0,0,.2.27,3.75,3.75,0,0,1,.51.33,5.47,5.47,0,0,0,.61.4,6.24,6.24,0,0,1,1.07.83.25.25,0,0,1,.07.24c0,.1,0,.14,0,.13H48a2.19,2.19,0,0,1,.66.73,4,4,0,0,0,.86,1c.08,0,.14.1.14.15a.39.39,0,0,0,.14.19c.07.06.32.35.56.64.45.53.59.64.86.64a.75.75,0,0,1,.5.22,1.31,1.31,0,0,0,.3.19,3.29,3.29,0,0,1,1,1c0,.13.05.15.2.15a.55.55,0,0,1,.28.09,3.82,3.82,0,0,1,.54,1,1.15,1.15,0,0,0,.28.39,4,4,0,0,1,.67,1.09,7.94,7.94,0,0,1,.42.91.73.73,0,0,0,.15.26,2.92,2.92,0,0,1,.29.54,3.46,3.46,0,0,0,.47.75,4.82,4.82,0,0,1,.64,1c.38.76.41.8.66.76s.37-.15.37-.54,0-.38-.12-.5A6.12,6.12,0,0,1,57,50.94a3.32,3.32,0,0,0-.24-.47c-.14-.22-.33-.55-.42-.72a4.84,4.84,0,0,0-.45-.62,1.13,1.13,0,0,1-.32-.54.64.64,0,0,0-.16-.34c-.12-.11-.13-.13-.06-.22s0-.13-.15-.3-.27-.32-.16-.39a.17.17,0,0,0,.05-.13c0-.08,0-.1-.13-.1s-.5-.31-.72-.63-.15-.21,0-.28a.35.35,0,0,1,.16-.07c.1,0,.09-.1,0-.15a1.4,1.4,0,0,0-.38-.09,1.53,1.53,0,0,1-.34-.08,1.79,1.79,0,0,1-.19-.41,1.68,1.68,0,0,0-.22-.41,1.12,1.12,0,0,1-.15-.34.72.72,0,0,0-.23-.39c-.15-.1-.15-.12-.12-.34l0-.23-.35-.33c-.2-.19-.48-.43-.62-.54a3.06,3.06,0,0,1-.69-.72.58.58,0,0,0-.19-.15c-.16-.1-.18-.13-.15-.26s0-.15-.27-.21l-.39-.09a6.63,6.63,0,0,1-1.25-1.28.35.35,0,0,0-.32-.24c-.17,0-.36-.17-1-.69a4.59,4.59,0,0,1-1.19-1.24,1.88,1.88,0,0,0-.43-.43,1.09,1.09,0,0,1-.56-.89c0-.35,0-.47.39-.72a1.27,1.27,0,0,0,.33-.29,2.53,2.53,0,0,1,.22-.28.65.65,0,0,0,.17-.29.29.29,0,0,1,.11-.19.33.33,0,0,0,.1-.18,1.59,1.59,0,0,1,.1-.37,3.86,3.86,0,0,0,.13-.69,2.56,2.56,0,0,0-.13-1.08,2.41,2.41,0,0,0-.57-1.29,4,4,0,0,0-1.32-.44c-.36,0-.54-.19-.46-.49,0-.09.11-.16.28-.23A7.45,7.45,0,0,0,46,29.31a3.61,3.61,0,0,0,.5-.52,2.16,2.16,0,0,1,.47-.46A.27.27,0,0,0,47.1,28c0-.17,0-.19.12-.16s.22.06.22-.12,0-.19.15-.23.49-.34.49-.43.19-.2.42-.25a.46.46,0,0,0,.21-.09.94.94,0,0,1,.65,0c.1,0,.12,0,.17,0a.18.18,0,0,1,.12-.1,1.08,1.08,0,0,0,.31-.19l.25-.19.09.1c.09.11.09.11.2-.11s.18-.27.51-.46a1.21,1.21,0,0,1,1.14-.16,4.14,4.14,0,0,1,1.29.92c.26.29.28.46.09.91s-.17.68-.05.78.13,0,.35-.07a4.34,4.34,0,0,0,.58-.4l.29-.24.19.19a.73.73,0,0,0,.45.25,4.62,4.62,0,0,1,1.8,1,.24.24,0,0,0,.19.13,3,3,0,0,1,1.16.76,1.71,1.71,0,0,0,.59.42,3.22,3.22,0,0,1,.5.29,1.74,1.74,0,0,0,.39.23,1.26,1.26,0,0,1,.34.33.67.67,0,0,0,.35.31,1.9,1.9,0,0,1,.47.31,6,6,0,0,0,.65.48,9.14,9.14,0,0,1,2.35,2,.29.29,0,0,0,.13.19.82.82,0,0,1,.24.42c.12.42.12.6,0,.81s-.08.16,0,.1.1-.06.11,0a4,4,0,0,1,.1.82,5,5,0,0,0,.15,1c.07.17.07.21,0,.45a.55.55,0,0,0,0,.55l.12.29-.11.22a2.74,2.74,0,0,0-.2,1.12,4.62,4.62,0,0,1-.42,1.81c0,.06,0,.09,0,.16a.54.54,0,0,1,.12.24c.05.24.16.24.42,0a1.28,1.28,0,0,1,.29-.21c.1,0,.25-.21.25-.36a1.4,1.4,0,0,1,.11-.41,1,1,0,0,0,.07-.42.66.66,0,0,1,.05-.35,8,8,0,0,0,.19-2.07,3.68,3.68,0,0,0-.21-1.63.44.44,0,0,1,.09-.64l.2-.19-.2-.22a.61.61,0,0,1-.11-.76c.09-.19.11-.19.36-.1.06,0,0,0-.1-.17a1.87,1.87,0,0,1-.33-.51c-.1-.24-.39-1.33-.6-2.19,0-.1-.07-.14-.2-.17a.66.66,0,0,1-.33-.19,2.92,2.92,0,0,0-.54-.39,3.93,3.93,0,0,1-.64-.45L63,30.6l.1-.15c.09-.13.18-.32.15-.32l-.28.1a1.08,1.08,0,0,1-1.17-.15c-.09-.08-.25-.19-.35-.26a1,1,0,0,1-.3-.3,1.22,1.22,0,0,0-.54-.37,5,5,0,0,1-.61-.34,2.14,2.14,0,0,0-.34-.24,1.46,1.46,0,0,1-.33-.33c-.36-.52-.41-.56-.88-.66a7.7,7.7,0,0,1-1.34-1.22.4.4,0,0,0-.2-.18,1.67,1.67,0,0,1-.67-.61l-.12-.24.22-.42a7.78,7.78,0,0,0,.58-1.72A13,13,0,0,1,57.67,21a4.46,4.46,0,0,0,.31-.87.39.39,0,0,0-.15-.4,2,2,0,0,0-.79-.37,3.54,3.54,0,0,1-.8-.33,11.6,11.6,0,0,0-1.86-.91,6.72,6.72,0,0,1-1.47-.77,5.91,5.91,0,0,0-1.5-.84,5.84,5.84,0,0,1-1.22-.58c-.47-.28-.48-.3-.4-.59a.56.56,0,0,0,0-.26s-.19.26-.19.39-.37.27-.77.13a1.12,1.12,0,0,0-.83,0,2.52,2.52,0,0,1-1,.06l-.79,0-.28.2a1.61,1.61,0,0,1-.34.19c-.09,0-.28.28-.68,1.05-.28.52-.42.74-.53.8s-.16.15-.23.37c-.18.67-.19.7-.35.77s-.22.13-.29.47-.19.7-.36.77a.28.28,0,0,1-.43-.15c-.08-.16-.09-.27-.07-.75a5.44,5.44,0,0,1,.06-.66.43.43,0,0,1,.19-.14c.19-.06.19-.16,0-.47a1.26,1.26,0,0,1-.19-.75l0-.51-.31-.38c-.18-.2-.38-.45-.46-.54a1.18,1.18,0,0,0-1.06-.4,1.44,1.44,0,0,0-.56.06l-.23.14c-.13.07-.24.22-.46.63s-.38.68-.48.85a1.81,1.81,0,0,0-.22.54,3.79,3.79,0,0,1-.2.88,1.29,1.29,0,0,0-.06.62c0,.37,0,.4-.13.55a1.39,1.39,0,0,0-.19.36A23.6,23.6,0,0,0,38,22.9a3.19,3.19,0,0,1-.37,1.72c-.24.47-.32.51-.73.45-.6-.1-.83-.27-.76-.55a.77.77,0,0,0-.05-.37,4.18,4.18,0,0,1,0-1.43c0-.65.07-1.42.1-1.71a5.49,5.49,0,0,0-.1-1.51,5.89,5.89,0,0,1-.05-.67,17.4,17.4,0,0,0-.31-2.09c-.06-.29-.18-1.16-.26-1.94-.16-1.44-.33-2.7-.39-2.85a.6.6,0,0,0-.18-.19,1.17,1.17,0,0,1-.28-.38A4.7,4.7,0,0,0,33.21,9.9a2.69,2.69,0,0,0-1.31-.49A3.14,3.14,0,0,1,30.65,9a1.1,1.1,0,0,0-.32-.21,2.36,2.36,0,0,1-.41-.25,2,2,0,0,0-.77-.39C28.74,8,28.75,8,28.7,8.1ZM30,10.34c.63.21.81.35,1,.73a1.2,1.2,0,0,0,.74.72c.58.29.57.27.63,1.28a7.88,7.88,0,0,0,.23,1.59c.1.38.2.74.23.8a4.87,4.87,0,0,1,.27.86,3.7,3.7,0,0,0,.18.62c.22.64.28,1,.16,1.09s-.31-.11-1-.69a10.16,10.16,0,0,0-4.33-2,5,5,0,0,1-.91-.28c-.13-.14-.09-.57.1-1a2,2,0,0,0,.16-.41,6.24,6.24,0,0,1,.42-1,7.07,7.07,0,0,0,.31-.95,5.52,5.52,0,0,1,.25-.83,1.42,1.42,0,0,1,.93-.72A3.5,3.5,0,0,1,30,10.34Zm18.55,7.27a1.49,1.49,0,0,0,.45.15,1.18,1.18,0,0,1,.51.29,1.36,1.36,0,0,0,1,.36,1.62,1.62,0,0,1,.5.16,8.39,8.39,0,0,0,.8.26,4.82,4.82,0,0,1,1.58.64,1,1,0,0,0,.68.23,1.79,1.79,0,0,1,.86.26,5.22,5.22,0,0,0,.63.26.61.61,0,0,1,.22.12c.15.12.15.13.07.25a.43.43,0,0,0-.09.2s-.15.53-.33,1.09A6.3,6.3,0,0,0,55,24.12a1.43,1.43,0,0,1,0,.34s-.11,0-.2,0a1.05,1.05,0,0,0-.3-.07,1.08,1.08,0,0,1-.31-.1,4.94,4.94,0,0,0-.54-.24,4,4,0,0,1-.58-.27,6.06,6.06,0,0,0-1.94-.69c-.46,0-.69,0-.78.11s-.16.1-.4.1a1.68,1.68,0,0,0-.62.13c-.42.17-.59.17-.63,0s-.17-.16-.17,0-.06.27-.37.39a1.81,1.81,0,0,0-.44.23.58.58,0,0,1-.24.12.34.34,0,0,0-.17.11.33.33,0,0,1-.18.1.28.28,0,0,0-.18.14.62.62,0,0,1-.37.3c-.1,0-.16,0-.31-.17s-.19-.18-.21-.11a.25.25,0,0,0,.06.18.29.29,0,0,1,0,.38l-.37.31c-.38.31-.62.4-.86.32a.74.74,0,0,0-.2-.06,1.07,1.07,0,0,0,0,.32.89.89,0,0,1-.15.58.71.71,0,0,1-.25.28.08.08,0,0,0-.07.09.16.16,0,0,1-.16.23c-.11,0-.12,0-.07.07s0,.11-.2.29c-.65.54-1,.3-.51-.42a2.11,2.11,0,0,1,.37-.48.52.52,0,0,0,.21-.29,1,1,0,0,1,.38-.64c.16-.09.17-.1.09-.19s-.09-.1,0-.2a.79.79,0,0,0,.12-.34.36.36,0,0,1,.12-.29.22.22,0,0,0,.1-.18c0-.28.44-.95.64-.95s.1,0,0-.2-.09-.28.11-.39.13-.09.11-.27,0-.22.16-.3.25-.18.16-.29-.07-.11,0-.34.3-.45.49-.4.22,0,0-.16-.12-.11-.12-.15a5.08,5.08,0,0,1,.23-.59,3.43,3.43,0,0,0,.23-.63,1,1,0,0,1,.18-.35c.09-.13.25-.4.36-.6.2-.4.38-.54.5-.42s.25.15.25.1a.44.44,0,0,0-.17-.14c-.26-.17-.25-.33,0-.65S48.23,17.43,48.59,17.61Zm-7,1.38a10.73,10.73,0,0,1,.11,1.67,10.53,10.53,0,0,0,.13,1.8c.11.37.11.55,0,.58s-.13,0,0,.17,0,.27-.17.23-.15,0-.15.06a.39.39,0,0,0,.08.19.44.44,0,0,1,0,.54.37.37,0,0,0,0,.49,1,1,0,0,1,0,.52c0,.39-.14.61-.29.61A.49.49,0,0,0,41,26a.4.4,0,0,1-.51.1c-.09-.05-.15,0-.29,0s-.18.09-.41,0-.23-.13-.2-.23a2.69,2.69,0,0,0,.05-.45,1.12,1.12,0,0,1,.17-.64,2.38,2.38,0,0,0,.24-1c.08-.75.16-.94.43-1.12s.16-.11.06-.24a.62.62,0,0,1,0-.64,3.79,3.79,0,0,0,.13-.57,2.35,2.35,0,0,1,.15-.62,4.77,4.77,0,0,0,.18-.9c.09-.74.16-.89.4-.86A.24.24,0,0,1,41.57,19Zm3.81,13.44a.89.89,0,0,1,.38.61,4,4,0,0,1-.46,1.29.7.7,0,0,1-.25.16,1.13,1.13,0,0,0-.34.18c-.29.2-.41.23-.52.13s-.1-.33.25-.69c.51-.53.6-.78.46-1.25-.06-.24-.07-.34,0-.43S45.16,32.25,45.38,32.43ZM29.94,35c.1.1.1.17,0,.32s-.24.13-.34,0-.06-.13,0-.24S29.82,34.84,29.94,35Z" transform="translate(0 -8.05)" style="fill:#1d1e18"/><path d="M481.18,26a2.76,2.76,0,0,1-2-.7,2.73,2.73,0,0,1-.7-2v-.77a2.45,2.45,0,0,1,2.71-2.71h.59a2.45,2.45,0,0,1,2.71,2.71v.77a2.73,2.73,0,0,1-.7,2,2.76,2.76,0,0,1-2,.7Zm0,17.69a2.76,2.76,0,0,1-2-.7,2.73,2.73,0,0,1-.7-2v-.77a2.45,2.45,0,0,1,2.71-2.71h.59a2.45,2.45,0,0,1,2.71,2.71v.77a2.73,2.73,0,0,1-.7,2,2.76,2.76,0,0,1-2,.7Z" transform="translate(0 -8.05)" style="fill:#1d1e18"/><path d="M493.53,26a2.76,2.76,0,0,1-2-.7,2.73,2.73,0,0,1-.7-2v-.77a2.45,2.45,0,0,1,2.71-2.71h.59a2.45,2.45,0,0,1,2.71,2.71v.77A2.45,2.45,0,0,1,494.12,26Zm0,17.69a2.76,2.76,0,0,1-2-.7,2.73,2.73,0,0,1-.7-2v-.77a2.45,2.45,0,0,1,2.71-2.71h.59a2.45,2.45,0,0,1,2.71,2.71v.77a2.45,2.45,0,0,1-2.71,2.72Z" transform="translate(0 -8.05)" style="fill:#1d1e18"/><path d="M228.37,15.13a12.57,12.57,0,0,1,5.88,1.29,11.48,11.48,0,0,1,4.1,3.53A15.56,15.56,0,0,1,240.72,25a22.3,22.3,0,0,1,.77,5.92,22,22,0,0,1-1.38,7.94,12.56,12.56,0,0,1-4.27,5.75,12.23,12.23,0,0,1-7.47,2.15H216.61a.86.86,0,0,1-.63-.27.89.89,0,0,1-.27-.64V16a.92.92,0,0,1,.9-.91ZM227.92,45a11.12,11.12,0,0,0,6.72-1.88A10.86,10.86,0,0,0,238.39,38a19.92,19.92,0,0,0,1.2-7.08,21.35,21.35,0,0,0-.65-5.29,13.63,13.63,0,0,0-2.06-4.5,10,10,0,0,0-3.62-3.1,11.7,11.7,0,0,0-5.34-1.13H217.33l.28-.36V45.4l-.28-.41Z" transform="translate(0 -8.05)" style="fill:#1d1e18"/><path d="M248.41,20.42a1.61,1.61,0,0,1-1.15-.4,1.37,1.37,0,0,1-.43-1v-.37a1.34,1.34,0,0,1,.45-1,1.71,1.71,0,0,1,1.18-.4,1.49,1.49,0,0,1,1.06.4,1.36,1.36,0,0,1,.43,1V19a1.37,1.37,0,0,1-.43,1A1.54,1.54,0,0,1,248.41,20.42Zm.91,25.47a.92.92,0,0,1-.91.91.83.83,0,0,1-.65-.27.91.91,0,0,1-.25-.64V24.4a.91.91,0,0,1,1.56-.63.93.93,0,0,1,.25.63Z" transform="translate(0 -8.05)" style="fill:#1d1e18"/><path d="M266.37,23.5a9.93,9.93,0,0,1,3.8.72,11.12,11.12,0,0,1,3.1,1.9,9.38,9.38,0,0,1,2.08,2.54,5.47,5.47,0,0,1,.75,2.67l-.59-1.68V25.13a.88.88,0,0,1,.25-.63.84.84,0,0,1,.66-.28.81.81,0,0,1,.65.28.88.88,0,0,1,.25.63V44.58a12.1,12.1,0,0,1-1.42,6A9.84,9.84,0,0,1,272,54.49a12,12,0,0,1-5.79,1.36,14.34,14.34,0,0,1-3.64-.48,12,12,0,0,1-3.05-1.2c-.82-.48-1.23-1-1.23-1.54a.81.81,0,0,1,.21-.58.68.68,0,0,1,.56-.23,1.05,1.05,0,0,1,.84.5,3.36,3.36,0,0,0,1.38.9l1.11.36a12.05,12.05,0,0,0,1.7.39,14.79,14.79,0,0,0,2.21.16,8.83,8.83,0,0,0,6.77-2.65,9.72,9.72,0,0,0,2.46-6.9V40.1l.45,0a9.64,9.64,0,0,1-1.58,3.3A8.91,8.91,0,0,1,272,45.64a10.14,10.14,0,0,1-2.81,1.23,11.43,11.43,0,0,1-2.83.38,10.2,10.2,0,0,1-5.58-1.56,11.24,11.24,0,0,1-3.92-4.25,12.74,12.74,0,0,1-1.44-6.09,12.67,12.67,0,0,1,1.44-6.08A11,11,0,0,1,260.79,25,10.27,10.27,0,0,1,266.37,23.5Zm.09,1.72a8.76,8.76,0,0,0-4.72,1.31,9.13,9.13,0,0,0-3.31,3.6,11,11,0,0,0-1.2,5.22,11.07,11.07,0,0,0,1.2,5.2,9.27,9.27,0,0,0,3.31,3.65,8.6,8.6,0,0,0,4.72,1.33,8.77,8.77,0,0,0,4.71-1.29,9.18,9.18,0,0,0,3.3-3.57,11.05,11.05,0,0,0,1.22-5.32A11,11,0,0,0,274.47,30a8.82,8.82,0,0,0-8-4.82Z" transform="translate(0 -8.05)" style="fill:#1d1e18"/><path d="M285.73,20.42a1.61,1.61,0,0,1-1.15-.4,1.37,1.37,0,0,1-.43-1v-.37a1.34,1.34,0,0,1,.45-1,1.72,1.72,0,0,1,1.18-.4,1.47,1.47,0,0,1,1.06.4,1.36,1.36,0,0,1,.43,1V19a1.37,1.37,0,0,1-.43,1A1.53,1.53,0,0,1,285.73,20.42Zm.91,25.47a.89.89,0,0,1-.27.64.87.87,0,0,1-.64.27.83.83,0,0,1-.65-.27.91.91,0,0,1-.25-.64V24.4a.92.92,0,0,1,.9-.9.84.84,0,0,1,.66.27.88.88,0,0,1,.25.63Z" transform="translate(0 -8.05)" style="fill:#1d1e18"/><path d="M292.07,24h10.49a.79.79,0,0,1,.61.27.86.86,0,0,1,.25.59.85.85,0,0,1-.86.86H292.07a.93.93,0,0,1-.86-.86.8.8,0,0,1,.27-.61A.89.89,0,0,1,292.07,24Zm4.61-6.65a.87.87,0,0,1,.66.27,1,1,0,0,1,.25.64V41.87a4.86,4.86,0,0,0,.38,2.19,1.84,1.84,0,0,0,1,.91,3.65,3.65,0,0,0,1.14.2,1.45,1.45,0,0,0,.54-.09,1.45,1.45,0,0,1,.54-.09.69.69,0,0,1,.54.25.8.8,0,0,1,.23.56.82.82,0,0,1-.52.7,2.56,2.56,0,0,1-1.29.3l-1,0a3.94,3.94,0,0,1-1.5-.41,3.18,3.18,0,0,1-1.33-1.4,6.63,6.63,0,0,1-.54-3V18.3a.89.89,0,0,1,.27-.64A.86.86,0,0,1,296.68,17.39Z" transform="translate(0 -8.05)" style="fill:#1d1e18"/><path d="M327.13,24.22a.81.81,0,0,1,.65.28.88.88,0,0,1,.25.63V45.89a.89.89,0,0,1-.27.64.91.91,0,0,1-1.29,0,1,1,0,0,1-.25-.64V39.47l.73-.59a6.58,6.58,0,0,1-.73,2.94,9.42,9.42,0,0,1-2,2.72,9.89,9.89,0,0,1-3,2,9.21,9.21,0,0,1-3.71.75,9.59,9.59,0,0,1-5.41-1.58,10.93,10.93,0,0,1-3.73-4.3A13.42,13.42,0,0,1,307,35.26a12.94,12.94,0,0,1,1.38-6.08A10.6,10.6,0,0,1,312.18,25a9.67,9.67,0,0,1,5.36-1.52,9.54,9.54,0,0,1,3.66.7,9.14,9.14,0,0,1,3,2,9,9,0,0,1,2,3,9.17,9.17,0,0,1,.73,3.69l-.73-1.13V25.13a.93.93,0,0,1,.25-.63A.84.84,0,0,1,327.13,24.22Zm-9.5,21.31a7.92,7.92,0,0,0,4.52-1.33,9,9,0,0,0,3.12-3.67,11.82,11.82,0,0,0,1.13-5.27,11.26,11.26,0,0,0-1.13-5.09,9.11,9.11,0,0,0-3.12-3.62,7.92,7.92,0,0,0-4.52-1.33,8.07,8.07,0,0,0-4.48,1.29A8.89,8.89,0,0,0,310,30.06a11.28,11.28,0,0,0-1.16,5.2A12,12,0,0,0,310,40.53a9.14,9.14,0,0,0,3.12,3.67A8,8,0,0,0,317.63,45.53Z" transform="translate(0 -8.05)" style="fill:#1d1e18"/><path d="M337.58,45.89a.92.92,0,0,1-.91.91.83.83,0,0,1-.65-.27.91.91,0,0,1-.25-.64V14.23a.91.91,0,0,1,1.56-.64.93.93,0,0,1,.25.64Z" transform="translate(0 -8.05)" style="fill:#1d1e18"/><path d="M365.85,47.25a8.26,8.26,0,0,1-5.2-1.76A10.82,10.82,0,0,1,357.26,41a1.48,1.48,0,0,1-.09-.45.68.68,0,0,1,.29-.61,1,1,0,0,1,.61-.2.83.83,0,0,1,.54.15,1.46,1.46,0,0,1,.32.43A8.31,8.31,0,0,0,361.65,44a6.6,6.6,0,0,0,4.2,1.45,8.19,8.19,0,0,0,4-.95,6.74,6.74,0,0,0,2.65-2.67,8.21,8.21,0,0,0,.95-4V16a.87.87,0,0,1,.27-.64,1,1,0,0,1,.72-.27.87.87,0,0,1,.66.27.93.93,0,0,1,.25.64V37.8a10,10,0,0,1-1.2,5,8.36,8.36,0,0,1-3.35,3.32A10.18,10.18,0,0,1,365.85,47.25Z" transform="translate(0 -8.05)" style="fill:#1d1e18"/><path d="M400.73,24.22a.84.84,0,0,1,.66.28.93.93,0,0,1,.25.63V38.29c0,2.93-.83,5.12-2.47,6.58a10.75,10.75,0,0,1-13,0q-2.46-2.19-2.46-6.58V25.13a.86.86,0,0,1,.27-.63.88.88,0,0,1,1.29,0,.93.93,0,0,1,.25.63V38.29a6.87,6.87,0,0,0,1.92,5.25,7.29,7.29,0,0,0,5.22,1.81,7.37,7.37,0,0,0,5.27-1.81,6.83,6.83,0,0,0,1.93-5.25V25.13a.88.88,0,0,1,.25-.63A.81.81,0,0,1,400.73,24.22Z" transform="translate(0 -8.05)" style="fill:#1d1e18"/><path d="M418.78,24a8.28,8.28,0,0,1,4.64,1.38,7,7,0,0,1,2.87,4.32l-.59.41.23-.86A6.47,6.47,0,0,1,428,26.53a12.46,12.46,0,0,1,3.3-1.88,10,10,0,0,1,3.55-.7,7.88,7.88,0,0,1,4.48,1.18,7,7,0,0,1,2.6,3.14,11.26,11.26,0,0,1,.84,4.46V45.89a1,1,0,0,1-.25.64.87.87,0,0,1-.66.27.83.83,0,0,1-.65-.27.91.91,0,0,1-.25-.64v-13a9.7,9.7,0,0,0-.66-3.64,5.67,5.67,0,0,0-2-2.63,6.18,6.18,0,0,0-3.6-1,8.19,8.19,0,0,0-3.8,1,8.72,8.72,0,0,0-3.05,2.63,6,6,0,0,0-1.2,3.64v13a1,1,0,0,1-.25.64.87.87,0,0,1-.66.27.83.83,0,0,1-.65-.27.91.91,0,0,1-.25-.64V32.68a9.94,9.94,0,0,0-.61-3.53,5.49,5.49,0,0,0-1.93-2.53,5.81,5.81,0,0,0-3.48-.95,7.8,7.8,0,0,0-3.69.95,8.74,8.74,0,0,0-3,2.53A5.83,5.83,0,0,0,411,32.68V45.89a.89.89,0,0,1-.27.64.91.91,0,0,1-1.29,0,.94.94,0,0,1-.24-.64V25.13a.86.86,0,0,1,.27-.63.88.88,0,0,1,1.29,0,.92.92,0,0,1,.24.63v4.93l-1.35,2.31a6.57,6.57,0,0,1,.77-3.08,9.47,9.47,0,0,1,2.06-2.69,10.1,10.1,0,0,1,2.94-1.92A8.3,8.3,0,0,1,418.78,24Z" transform="translate(0 -8.05)" style="fill:#1d1e18"/><path d="M460.76,24a9.9,9.9,0,0,1,5.39,1.49,10.79,10.79,0,0,1,3.73,4.1,12.5,12.5,0,0,1,1.38,6,12.49,12.49,0,0,1-1.38,5.92,10.68,10.68,0,0,1-3.76,4.14,9.75,9.75,0,0,1-5.36,1.52,9.5,9.5,0,0,1-2.87-.43,9.89,9.89,0,0,1-2.56-1.22,10.17,10.17,0,0,1-2.14-2,12.81,12.81,0,0,1-1.7-2.67l.59-.63V54.94a.93.93,0,0,1-.25.63.88.88,0,0,1-1.29,0,.86.86,0,0,1-.27-.63V24.86a.91.91,0,0,1,.25-.64.83.83,0,0,1,.65-.27.87.87,0,0,1,.66.27,1,1,0,0,1,.25.64v5.79l-.59-.32a11.07,11.07,0,0,1,1.58-2.89,8.7,8.7,0,0,1,2.17-2,9.6,9.6,0,0,1,2.63-1.13A11.56,11.56,0,0,1,460.76,24Zm-.09,1.72a8.14,8.14,0,0,0-4.54,1.27A8.74,8.74,0,0,0,453,30.4a10.88,10.88,0,0,0-1.13,5.09A11.08,11.08,0,0,0,453,40.58a8.65,8.65,0,0,0,3.1,3.5,8.68,8.68,0,0,0,9,0,8.85,8.85,0,0,0,3.12-3.5,11,11,0,0,0,1.16-5.09,10.83,10.83,0,0,0-1.16-5.07,8.86,8.86,0,0,0-3.12-3.48A8.08,8.08,0,0,0,460.67,25.67Z" transform="translate(0 -8.05)" style="fill:#1d1e18"/><path d="M191.3,26a2.77,2.77,0,0,1-2-.7,2.73,2.73,0,0,1-.7-2v-.77a2.45,2.45,0,0,1,2.72-2.71h.58a2.73,2.73,0,0,1,2,.7,2.76,2.76,0,0,1,.7,2v.77A2.45,2.45,0,0,1,191.88,26Zm0,17.69a2.77,2.77,0,0,1-2-.7,2.73,2.73,0,0,1-.7-2v-.77a2.45,2.45,0,0,1,2.72-2.71h.58a2.73,2.73,0,0,1,2,.7,2.76,2.76,0,0,1,.7,2v.77a2.45,2.45,0,0,1-2.72,2.72Z" transform="translate(0 -8.05)" style="fill:#1d1e18"/><path d="M203.65,26a2.77,2.77,0,0,1-2-.7,2.73,2.73,0,0,1-.7-2v-.77a2.45,2.45,0,0,1,2.72-2.71h.58a2.73,2.73,0,0,1,2,.7,2.76,2.76,0,0,1,.7,2v.77A2.45,2.45,0,0,1,204.23,26Zm0,17.69a2.77,2.77,0,0,1-2-.7,2.73,2.73,0,0,1-.7-2v-.77a2.45,2.45,0,0,1,2.72-2.71h.58a2.73,2.73,0,0,1,2,.7,2.76,2.76,0,0,1,.7,2v.77a2.45,2.45,0,0,1-2.72,2.72Z" transform="translate(0 -8.05)" style="fill:#1d1e18"/><path d="M82.93,47.25a11.22,11.22,0,0,1-4.8-1,9.18,9.18,0,0,1-3.62-3A2.86,2.86,0,0,1,74,41.64a2.42,2.42,0,0,1,.88-1.9A2.7,2.7,0,0,1,76.59,39a2.53,2.53,0,0,1,1.34.41,6.52,6.52,0,0,1,1.2.95,5.83,5.83,0,0,0,1.78,1.15,5.52,5.52,0,0,0,2,.34,4.9,4.9,0,0,0,2.53-.68,5.32,5.32,0,0,0,1.9-1.81,4.43,4.43,0,0,0,.72-2.44v-19a2.59,2.59,0,0,1,.86-2,2.86,2.86,0,0,1,2-.79,2.69,2.69,0,0,1,2,.79,2.74,2.74,0,0,1,.77,2v19A9.53,9.53,0,0,1,92.29,42a11.07,11.07,0,0,1-3.89,3.8A10.48,10.48,0,0,1,82.93,47.25Z" transform="translate(0 -8.05)" style="fill:#1d1e18"/><path d="M111.47,22.23l-9.77,23a2.75,2.75,0,0,1-1,1.34A2.36,2.36,0,0,1,99.3,47a2.29,2.29,0,0,1-1.81-.67,2.49,2.49,0,0,1-.58-1.68,3,3,0,0,1,.13-.86l11.27-27a3,3,0,0,1,1.1-1.4A2.35,2.35,0,0,1,111,15a2.66,2.66,0,0,1,2.53,1.81l11.13,26.51a3,3,0,0,1,.23,1.08A2.58,2.58,0,0,1,122.38,47a2.35,2.35,0,0,1-1.47-.49,3.29,3.29,0,0,1-1-1.36L110.16,22.5ZM103.1,39.7l2.49-5.21h12.22l.86,5.21Z" transform="translate(0 -8.05)" style="fill:#1d1e18"/><path d="M150.7,16.67a2.42,2.42,0,0,1,1.38,1.85,2.82,2.82,0,0,1-.66,2.31,2.07,2.07,0,0,1-1.52.91,3.44,3.44,0,0,1-1.87-.37,12.58,12.58,0,0,0-2.29-.77,11.36,11.36,0,0,0-2.51-.27,11.69,11.69,0,0,0-4.36.77,9.16,9.16,0,0,0-3.28,2.2,9.28,9.28,0,0,0-2.06,3.37,12.5,12.5,0,0,0-.7,4.29,13.19,13.19,0,0,0,.79,4.8,9.37,9.37,0,0,0,2.19,3.39,8.89,8.89,0,0,0,3.3,2,12.75,12.75,0,0,0,4.12.65,13.34,13.34,0,0,0,2.44-.22,8.83,8.83,0,0,0,2.36-.82,3.22,3.22,0,0,1,1.87-.32,2.37,2.37,0,0,1,1.56.95,2.71,2.71,0,0,1,.66,2.33,2.43,2.43,0,0,1-1.38,1.75,16.29,16.29,0,0,1-2.42,1,18.63,18.63,0,0,1-2.51.59,16.94,16.94,0,0,1-2.58.2,18.29,18.29,0,0,1-6.17-1,15.59,15.59,0,0,1-5.21-3.08A14.09,14.09,0,0,1,128.26,38,17.67,17.67,0,0,1,126.94,31a16.83,16.83,0,0,1,1.2-6.42,14.83,14.83,0,0,1,3.4-5.09,15.68,15.68,0,0,1,5.18-3.35,17.29,17.29,0,0,1,6.51-1.2,16.76,16.76,0,0,1,3.89.46A15.93,15.93,0,0,1,150.7,16.67Z" transform="translate(0 -8.05)" style="fill:#1d1e18"/><path d="M167.07,47.25a19,19,0,0,1-5.7-.79,13.79,13.79,0,0,1-4.84-2.78,3.68,3.68,0,0,1-.9-1.13,2.88,2.88,0,0,1-.32-1.27,2.57,2.57,0,0,1,.75-1.83,2.45,2.45,0,0,1,1.87-.8,2.4,2.4,0,0,1,1.54.55,14.55,14.55,0,0,0,3.42,2.12,10.5,10.5,0,0,0,4.18.73,9,9,0,0,0,3.08-.52,6.06,6.06,0,0,0,2.26-1.41,2.79,2.79,0,0,0,.86-2,3.46,3.46,0,0,0-.81-2.31A6.35,6.35,0,0,0,170,34.2a19.08,19.08,0,0,0-4.25-1,18.7,18.7,0,0,1-4.3-1.11,10,10,0,0,1-3.1-1.9,7.48,7.48,0,0,1-1.88-2.71,9.3,9.3,0,0,1-.63-3.51,8.3,8.3,0,0,1,1.51-5,9.54,9.54,0,0,1,4.1-3.17,14.62,14.62,0,0,1,5.7-1.08,16.27,16.27,0,0,1,5.45.88,12.59,12.59,0,0,1,4.09,2.24A3,3,0,0,1,178,20.2a2.61,2.61,0,0,1-.77,1.81,2.44,2.44,0,0,1-1.81.81,2,2,0,0,1-1.23-.41,8.33,8.33,0,0,0-1.94-1.2,17.12,17.12,0,0,0-2.58-.94,9.18,9.18,0,0,0-2.53-.39,9.47,9.47,0,0,0-3.28.5,4.48,4.48,0,0,0-2,1.36,3.11,3.11,0,0,0-.67,2,3.23,3.23,0,0,0,.79,2.24,5.45,5.45,0,0,0,2.28,1.4,27.51,27.51,0,0,0,3.58.92,37.78,37.78,0,0,1,4.77,1.18A11,11,0,0,1,176,31.21a6.55,6.55,0,0,1,2,2.67,10.12,10.12,0,0,1,.68,3.92,8.05,8.05,0,0,1-1.63,5.06,10.38,10.38,0,0,1-4.28,3.26A14.45,14.45,0,0,1,167.07,47.25Z" transform="translate(0 -8.05)" style="fill:#1d1e18"/></g></svg>