<svg id="Layer_1" data-name="Layer 1" xmlns="http://www.w3.org/2000/svg" viewBox="0 0 500 52.01"><g id="text"><path d="M28.7,2.89s-.14,0-.34,0l-.3,0-.16.22-.15.21,0,.53c0,.51,0,.53-.09.65a.66.66,0,0,0-.17.25,2.92,2.92,0,0,1-.16.37,1.15,1.15,0,0,0-.13.44,11.46,11.46,0,0,1-.72,2.52c-.12.34-.27.8-.34,1-.16.54-.27.7-.48.78a13.24,13.24,0,0,1-1.58.41,15.89,15.89,0,0,0-3.15,1,9.7,9.7,0,0,0-3.64,3.1A5.67,5.67,0,0,0,15.82,18,11.66,11.66,0,0,0,16,20.86,11.06,11.06,0,0,0,17.7,24.7,6.91,6.91,0,0,0,20.83,27c.13,0,.51.19.84.34a6.17,6.17,0,0,0,2.12.64.21.21,0,0,1,.15.13c.08.17,0,.28-.24.28s-.43.06-.77.11a1.84,1.84,0,0,1-1,0c-.34-.07-1.87-.31-3-.45a1.48,1.48,0,0,1-.8-.25c-.12-.11-.22-.1-.17,0s-.56.16-.94,0c-.11,0-.18-.05-.22,0s-.1,0-.19,0l-.15,0a1.23,1.23,0,0,0-.06.17c-.1.31-1,.59-2.36.77-.52.06-.64.09-.82.22-.46.33-.53.38-.63.4s-.7.16-1,.25a1.07,1.07,0,0,0-.4.21c-.09.11-.16.13-.38.13a1.2,1.2,0,0,0-.77.29.66.66,0,0,1-.32.13c-.16,0-.28.1-.41.35s-.3.32-.85.37a2.06,2.06,0,0,0-1,.28c-.24.12-.67.31-.95.41a3.2,3.2,0,0,0-1,.54,7.27,7.27,0,0,1-1.77,1,3.2,3.2,0,0,0-.71.37,5.33,5.33,0,0,1-.83.44,4.74,4.74,0,0,0-.69.32l-.3.17A4.31,4.31,0,0,0,0,35.94a.41.41,0,0,0,.31.44,1.27,1.27,0,0,0,.42-.24,3.52,3.52,0,0,1,1.12-.58,1.19,1.19,0,0,0,.59-.32,2,2,0,0,1,1.42-.48l.3,0,.07-.19c.14-.32.45-.45,2.38-1a4.4,4.4,0,0,0,.81-.39,8.37,8.37,0,0,1,.94-.48,6,6,0,0,0,1.14-.57A1.75,1.75,0,0,1,10,32a1.74,1.74,0,0,0,.43-.15,2.71,2.71,0,0,1,.42-.18l.58-.2a6.93,6.93,0,0,1,1-.18A11.62,11.62,0,0,0,13.89,31a4.74,4.74,0,0,1,1.68-.16,10.58,10.58,0,0,1,1.29.06c.24.06.29.05.41,0s.25-.1.75-.1a1.75,1.75,0,0,0,.94-.14,1.22,1.22,0,0,1,1.1,0c.27.14.31.14,1,.11,2.2-.11,3.67-.2,4.14-.27.3,0,1-.11,1.55-.15a11.76,11.76,0,0,0,1.42-.19,2.74,2.74,0,0,1,.79-.09c.53,0,.6.12.14.21a1.14,1.14,0,0,0-.27.07c-.05.05.1.12.33.15a.71.71,0,0,1,.3.12.8.8,0,0,1,.08.68.7.7,0,0,1-.51.36c-.07,0-.13.06-.19.2a2.54,2.54,0,0,1-1,.77.34.34,0,0,0-.22.17,3.86,3.86,0,0,1-1,.88,1,1,0,0,0-.33.28,2.11,2.11,0,0,1-.66.59.61.61,0,0,1-.35,0l-.24,0,.17.15.18.16-.18.11a.83.83,0,0,1-.35.11c-.19,0-.2,0-.08.17s.08.11,0,.23a1,1,0,0,1-.25.24c-.17.09-.17.09-.45,0a.77.77,0,0,0-.34-.08c-.1,0,0,.12.16.18a.56.56,0,0,1,.28.16c.07.09.06.12,0,.19a1,1,0,0,0-.2.34,2.37,2.37,0,0,1-.84,1.12c-.05,0-.05.05,0,.13.12.24.07.43-.18.67a.58.58,0,0,0-.24.57,1.77,1.77,0,0,1-.13.6c-.15.32-.14.35,0,.54s.16.25,0,.45-.15.18-.11.3a2,2,0,0,1,0,1,9.82,9.82,0,0,0-.13,2.85,6.52,6.52,0,0,1,.07.88,1.49,1.49,0,0,0,.07.53,8.06,8.06,0,0,1,.32,1.16c.32,1.36.46,1.66.78,1.66s.32-.38.2-.69a7.05,7.05,0,0,1-.1-.73,2.36,2.36,0,0,1,0-.86,1.2,1.2,0,0,0,0-.69,1.79,1.79,0,0,1,0-1.09,3.05,3.05,0,0,0,.18-1,5.15,5.15,0,0,1,0-1,1.3,1.3,0,0,0,0-.52,1.29,1.29,0,0,1,0-.59c.07-.38.17-.56.31-.56s.14-.07,0-.15-.09-.49,0-.49.09-.09.13-.22a2.37,2.37,0,0,1,.17-.41,5.67,5.67,0,0,0,.24-.64c.08-.24.17-.51.21-.59s.33-.44.42-.44.1-.07.14-.16a.91.91,0,0,1,.28-.27,2.05,2.05,0,0,0,.34-.32,3,3,0,0,1,.32-.39,16.47,16.47,0,0,0,1.16-1.51,5.34,5.34,0,0,1,2.71-2.09.67.67,0,0,1,.8.12,1.57,1.57,0,0,0,.46.31,4.42,4.42,0,0,1,1.28,1,2.07,2.07,0,0,0,.41.39c.16,0,.29.44.25.75s0,.26,0,.26.17.14.34.85.21.81.36,1a1,1,0,0,1,.15.34,1,1,0,0,0,.32.47,1,1,0,0,1,.36.82.36.36,0,0,0,.1.28.49.49,0,0,1,.13.2,1.41,1.41,0,0,0,.18.28,3.21,3.21,0,0,1,.52,1,.89.89,0,0,0,.19.35,2.65,2.65,0,0,1,.44.78,2.4,2.4,0,0,0,.21.38,1.59,1.59,0,0,1,.19.46,1.46,1.46,0,0,0,.44.82,5,5,0,0,1,.42.5,1.23,1.23,0,0,0,.28.32.49.49,0,0,1,.15.11,2.38,2.38,0,0,0,.4.28c.28.16.29.17.49.67a2.28,2.28,0,0,0,.47.81,1.15,1.15,0,0,1,.31.47,1.67,1.67,0,0,0,.5.76,2.37,2.37,0,0,1,.36.52,4.91,4.91,0,0,0,.31.54c.15.23.48.78.66,1.13.06.13.13.24.16.24s.13.13.24.28A4.52,4.52,0,0,0,43.27,52c.21.06.33-.12.33-.46s0-.39-.51-.93a3.73,3.73,0,0,1-.41-.59,5.09,5.09,0,0,0-.32-.54c-.28-.4-1.1-1.76-1.29-2.16l-.37-.67a3.42,3.42,0,0,1-.25-.54A4.57,4.57,0,0,0,39.71,45a.67.67,0,0,1-.14-.26,2.1,2.1,0,0,0-.21-.45,2.77,2.77,0,0,1-.46-1.13A3.67,3.67,0,0,0,38.55,42c-.11-.2-.13-.27-.08-.34s0-.12-.07-.22a1.28,1.28,0,0,1-.43-.67.61.61,0,0,0-.31-.48,1.26,1.26,0,0,1-.36-.7c0-.09-.07-.2-.23-.35a1.31,1.31,0,0,1-.26-.34A5.13,5.13,0,0,0,36,37.56a1,1,0,0,1-.3-.4.16.16,0,0,0-.12-.15.85.85,0,0,1-.23-.17,1.75,1.75,0,0,1-.35-.78c0-.06,0-.08,0-.06s-.09,0-.13-.12l-.09-.24c0-.08,0-.09.05-.07s.09,0,0,0l-.08-.35a1.41,1.41,0,0,0-.13-.37.48.48,0,0,1-.07-.2.83.83,0,0,0-.23-.32C34,34,34,33.9,34.13,33.7s.27-.13.49,0,.11,0,.15-.1a.24.24,0,0,1,.2-.16,1.29,1.29,0,0,0,.39-.23,1.63,1.63,0,0,1,.29-.2s.05,0,.05-.08.44-.47.6-.51.19,0,.33.1a2,2,0,0,0,1.47.15c.29-.1.49-.1.49,0s0,.08.09,0A1.51,1.51,0,0,1,40,32.38a.76.76,0,0,0,.26.08,1.48,1.48,0,0,1,.39.11l.66.26c.7.27.86.54,1.06,1.81a2.5,2.5,0,0,1-.12,1.88c-.2.43-.26.68-.19.75a1.19,1.19,0,0,0,.64-.24.53.53,0,0,1,.13-.22.51.51,0,0,0,.13-.2,1.38,1.38,0,0,1,.16-.21.52.52,0,0,0,.15-.37.63.63,0,0,1,.08-.3,4.62,4.62,0,0,0,.21-1.8c0-.6,0-.69,0-.76s.19-.11.36.06a.47.47,0,0,0,.24.16,1,1,0,0,1,.62.39.81.81,0,0,0,.28.27.8.8,0,0,1,.28.34.53.53,0,0,0,.2.26,3.75,3.75,0,0,1,.51.33,5.88,5.88,0,0,0,.61.41,6.24,6.24,0,0,1,1.07.83.24.24,0,0,1,.07.24q0,.13,0,.12H48a2.27,2.27,0,0,1,.66.74,3.74,3.74,0,0,0,.86,1c.08,0,.14.11.14.15a.35.35,0,0,0,.14.19c.07.07.32.35.56.64.45.54.59.64.86.64a.76.76,0,0,1,.5.23,1.31,1.31,0,0,0,.3.19,3.29,3.29,0,0,1,1,1c0,.12.05.14.2.14a.48.48,0,0,1,.28.1,3.65,3.65,0,0,1,.54,1,1.14,1.14,0,0,0,.28.38,4,4,0,0,1,.67,1.09,7.7,7.7,0,0,1,.42.92.73.73,0,0,0,.15.26,2.63,2.63,0,0,1,.29.54,3.2,3.2,0,0,0,.47.74,5.19,5.19,0,0,1,.64,1c.38.75.41.8.66.75s.37-.14.37-.54,0-.37-.12-.49A6.16,6.16,0,0,1,57,45.73a4.33,4.33,0,0,0-.24-.46c-.14-.23-.33-.55-.42-.72a5.73,5.73,0,0,0-.45-.63,1.11,1.11,0,0,1-.32-.53.64.64,0,0,0-.16-.34c-.12-.11-.13-.13-.06-.23s0-.13-.15-.29-.27-.33-.16-.39A.18.18,0,0,0,55.1,42c0-.07,0-.1-.13-.1s-.5-.3-.72-.62-.15-.22,0-.28a.3.3,0,0,1,.16-.08c.1,0,.09-.09,0-.15a2.13,2.13,0,0,0-.38-.08,1,1,0,0,1-.34-.09,1.45,1.45,0,0,1-.19-.4,2.07,2.07,0,0,0-.22-.42,1,1,0,0,1-.15-.33.72.72,0,0,0-.23-.39c-.15-.1-.15-.12-.12-.34l0-.23-.35-.34-.62-.53a3.27,3.27,0,0,1-.69-.72s-.09-.09-.19-.15-.18-.13-.15-.26,0-.15-.27-.21l-.39-.09a6.93,6.93,0,0,1-1.25-1.28.38.38,0,0,0-.32-.25c-.17,0-.36-.17-1-.68a4.43,4.43,0,0,1-1.19-1.25,2.13,2.13,0,0,0-.43-.42,1.09,1.09,0,0,1-.56-.9c0-.34,0-.47.39-.71a1.8,1.8,0,0,0,.33-.29c0-.05.13-.18.22-.29a.58.58,0,0,0,.17-.28.29.29,0,0,1,.11-.19.37.37,0,0,0,.1-.18,1.59,1.59,0,0,1,.1-.37,3.82,3.82,0,0,0,.13-.7,2.5,2.5,0,0,0-.13-1.07A2.37,2.37,0,0,0,46.22,26a4,4,0,0,0-1.32-.44c-.36,0-.54-.19-.46-.49,0-.09.11-.16.28-.24A8.1,8.1,0,0,0,46,24.11a3.76,3.76,0,0,0,.5-.53,2.77,2.77,0,0,1,.47-.46.25.25,0,0,0,.17-.28c0-.18,0-.19.12-.16s.22.06.22-.12,0-.19.15-.24.49-.33.49-.42.19-.21.42-.25a.46.46,0,0,0,.21-.09,1,1,0,0,1,.65,0c.1,0,.12,0,.17,0s.09-.11.12-.11a.88.88,0,0,0,.31-.19l.25-.19.09.11c.09.11.09.11.2-.11s.18-.27.51-.46a1.16,1.16,0,0,1,1.14-.16,4.14,4.14,0,0,1,1.29.92c.26.29.28.46.09.91s-.17.68-.05.78.13.05.35-.07a4.34,4.34,0,0,0,.58-.4l.29-.25.19.2a.84.84,0,0,0,.45.25,4.62,4.62,0,0,1,1.8,1,.27.27,0,0,0,.19.13,2.93,2.93,0,0,1,1.16.76,1.86,1.86,0,0,0,.59.42,2.15,2.15,0,0,1,.5.29,3.17,3.17,0,0,0,.39.23,1.12,1.12,0,0,1,.34.33.72.72,0,0,0,.35.31,1.79,1.79,0,0,1,.47.3,5,5,0,0,0,.65.48,9.32,9.32,0,0,1,2.35,2,.29.29,0,0,0,.13.19c.09.05.16.19.24.42a1,1,0,0,1,0,.81c-.08.15-.08.16,0,.09s.1-.05.11,0a3.85,3.85,0,0,1,.1.82,4.73,4.73,0,0,0,.15,1c.07.17.07.21,0,.46s-.08.26,0,.55l.12.28-.11.23a2.7,2.7,0,0,0-.2,1.11,4.66,4.66,0,0,1-.42,1.82c0,.05,0,.09,0,.16a.49.49,0,0,1,.12.24c.05.24.16.24.42,0a1,1,0,0,1,.29-.21c.1,0,.25-.21.25-.36a1.33,1.33,0,0,1,.11-.41,1,1,0,0,0,.07-.42.68.68,0,0,1,.05-.36,7.9,7.9,0,0,0,.19-2.06,3.77,3.77,0,0,0-.21-1.64.44.44,0,0,1,.09-.64l.2-.18-.2-.22a.62.62,0,0,1-.11-.77c.09-.18.11-.18.36-.09.06,0,0,0-.1-.17a2,2,0,0,1-.33-.51c-.1-.24-.39-1.33-.6-2.19,0-.1-.07-.14-.2-.17a.75.75,0,0,1-.33-.19,2.92,2.92,0,0,0-.54-.39,3.93,3.93,0,0,1-.64-.45L63,25.4l.1-.15c.09-.13.18-.32.15-.32L63,25a1.08,1.08,0,0,1-1.17-.16c-.09-.07-.25-.19-.35-.25a1.07,1.07,0,0,1-.3-.3,1.14,1.14,0,0,0-.54-.38A3.24,3.24,0,0,1,60,23.6a2,2,0,0,0-.34-.23,1.46,1.46,0,0,1-.33-.33c-.36-.52-.41-.56-.88-.66a7.39,7.39,0,0,1-1.34-1.23.51.51,0,0,0-.2-.18,1.54,1.54,0,0,1-.67-.61l-.12-.23.22-.43A7.43,7.43,0,0,0,56.91,18a13.24,13.24,0,0,1,.76-2.18,4.7,4.7,0,0,0,.31-.87c0-.2,0-.24-.15-.4a1.77,1.77,0,0,0-.79-.37,3.06,3.06,0,0,1-.8-.34,11,11,0,0,0-1.86-.9,7.18,7.18,0,0,1-1.47-.77,5.91,5.91,0,0,0-1.5-.84,6,6,0,0,1-1.22-.59c-.47-.27-.48-.3-.4-.58s.05-.25,0-.26-.19.26-.19.38-.37.28-.77.14a1.18,1.18,0,0,0-.83,0,2.3,2.3,0,0,1-1,.06h-.79l-.28.2a1.61,1.61,0,0,1-.34.19c-.09,0-.28.28-.68,1.05-.28.52-.42.74-.53.8s-.16.15-.23.37c-.18.67-.19.69-.35.76s-.22.13-.29.47c-.09.49-.19.71-.36.78s-.32,0-.43-.16-.09-.26-.07-.74a5.44,5.44,0,0,1,.06-.66.36.36,0,0,1,.19-.14c.19-.07.19-.16,0-.47a1.28,1.28,0,0,1-.19-.75l0-.51-.31-.38c-.18-.2-.38-.45-.46-.55a1.18,1.18,0,0,0-1.06-.39,1.44,1.44,0,0,0-.56.06l-.23.14c-.13.06-.24.21-.46.63s-.38.67-.48.84a1.92,1.92,0,0,0-.22.54,4,4,0,0,1-.2.89,1.28,1.28,0,0,0-.06.62c0,.36,0,.39-.13.55a1.39,1.39,0,0,0-.19.36A23.6,23.6,0,0,0,38,17.7a3.19,3.19,0,0,1-.37,1.72c-.24.47-.32.51-.73.44-.6-.09-.83-.26-.76-.54a.76.76,0,0,0-.05-.37,4.24,4.24,0,0,1,0-1.43c0-.65.07-1.42.1-1.71a5.57,5.57,0,0,0-.1-1.52,5.73,5.73,0,0,1-.05-.67,18,18,0,0,0-.31-2.09c-.06-.28-.18-1.15-.26-1.93-.16-1.45-.33-2.71-.39-2.85a.6.6,0,0,0-.18-.19,1.17,1.17,0,0,1-.28-.38A4.7,4.7,0,0,0,33.21,4.7a2.79,2.79,0,0,0-1.31-.5,2.83,2.83,0,0,1-1.25-.39,1.11,1.11,0,0,0-.32-.2,2.36,2.36,0,0,1-.41-.25A1.89,1.89,0,0,0,29.15,3C28.74,2.82,28.75,2.82,28.7,2.89ZM30,5.13c.63.22.81.35,1,.74a1.2,1.2,0,0,0,.74.72c.58.29.57.26.63,1.28a7.67,7.67,0,0,0,.23,1.58,7.82,7.82,0,0,0,.23.8,5,5,0,0,1,.27.87,3.7,3.7,0,0,0,.18.62c.22.64.28,1,.16,1.09s-.31-.11-1-.69a10,10,0,0,0-4.33-2,4.07,4.07,0,0,1-.91-.29c-.13-.13-.09-.56.1-1a2.31,2.31,0,0,0,.16-.4,5.87,5.87,0,0,1,.42-1,7.07,7.07,0,0,0,.31-1,5.52,5.52,0,0,1,.25-.83A1.39,1.39,0,0,1,29.4,5,3.2,3.2,0,0,1,30,5.13Zm18.55,7.28a2.37,2.37,0,0,0,.45.15,1.08,1.08,0,0,1,.51.29,1.41,1.41,0,0,0,1,.36,1.62,1.62,0,0,1,.5.16,6.32,6.32,0,0,0,.8.25,5.29,5.29,0,0,1,1.58.64,1,1,0,0,0,.68.24,1.79,1.79,0,0,1,.86.26,5.22,5.22,0,0,0,.63.26.48.48,0,0,1,.22.12c.15.11.15.12.07.24a.48.48,0,0,0-.09.2c0,.05-.15.54-.33,1.09A6.39,6.39,0,0,0,55,18.92a1.5,1.5,0,0,1,0,.34s-.11,0-.2,0a1.05,1.05,0,0,0-.3-.07.89.89,0,0,1-.31-.11c-.11-.05-.35-.16-.54-.23a5.37,5.37,0,0,1-.58-.27,6.1,6.1,0,0,0-1.94-.7c-.46,0-.69,0-.78.12s-.16.1-.4.1a1.5,1.5,0,0,0-.62.13c-.42.17-.59.17-.63,0s-.17-.16-.17,0-.06.26-.37.38a2.23,2.23,0,0,0-.44.24.74.74,0,0,1-.24.12.39.39,0,0,0-.17.1.3.3,0,0,1-.18.11.3.3,0,0,0-.18.13.59.59,0,0,1-.37.3c-.1,0-.16,0-.31-.16s-.19-.18-.21-.11a.26.26,0,0,0,.06.18.28.28,0,0,1,0,.37l-.37.32c-.38.31-.62.4-.86.31l-.2,0a1.07,1.07,0,0,0,0,.32.85.85,0,0,1-.15.57c-.08.14-.19.27-.25.28s-.08.05-.07.1,0,.22-.16.22S43.9,22,44,22s0,.12-.2.29c-.65.55-1,.3-.51-.41a1.9,1.9,0,0,1,.37-.48.55.55,0,0,0,.21-.29,1,1,0,0,1,.38-.64c.16-.1.17-.1.09-.19s-.09-.11,0-.21a.74.74,0,0,0,.12-.33.36.36,0,0,1,.12-.29.24.24,0,0,0,.1-.18c0-.28.44-.95.64-.95s.1,0,0-.2-.09-.29.11-.39.13-.09.11-.27,0-.22.16-.31.25-.18.16-.28-.07-.11,0-.34.3-.45.49-.4.22-.05,0-.16-.12-.11-.12-.15a4.43,4.43,0,0,1,.23-.59,3.42,3.42,0,0,0,.23-.64.93.93,0,0,1,.18-.34c.09-.13.25-.4.36-.61.2-.39.38-.53.5-.41s.25.15.25.09-.08-.08-.17-.14c-.26-.16-.25-.33,0-.64S48.23,12.22,48.59,12.41Zm-7,1.37a11.1,11.1,0,0,1,.11,1.68,10.53,10.53,0,0,0,.13,1.8c.11.36.11.55,0,.58s-.13,0,0,.16,0,.27-.17.24-.15,0-.15.05a.36.36,0,0,0,.08.19.45.45,0,0,1,0,.55.37.37,0,0,0,0,.49,1,1,0,0,1,0,.52c0,.39-.14.6-.29.6a.53.53,0,0,0-.27.16c-.19.16-.34.19-.51.09s-.15,0-.29,0-.18.09-.41,0-.23-.13-.2-.23a2.84,2.84,0,0,0,.05-.45,1.17,1.17,0,0,1,.17-.65,2.28,2.28,0,0,0,.24-1c.08-.75.16-.94.43-1.13s.16-.11.06-.23a.63.63,0,0,1,0-.64,4.29,4.29,0,0,0,.13-.58,2.56,2.56,0,0,1,.15-.62,4.46,4.46,0,0,0,.18-.89c.09-.75.16-.89.4-.87A.26.26,0,0,1,41.57,13.78Zm3.81,13.45a.87.87,0,0,1,.38.61,4.12,4.12,0,0,1-.46,1.29.7.7,0,0,1-.25.16.94.94,0,0,0-.34.18c-.29.19-.41.22-.52.13s-.1-.33.25-.69c.51-.53.6-.78.46-1.25-.06-.25-.07-.34,0-.44S45.16,27.05,45.38,27.23ZM29.94,29.76c.1.1.1.17,0,.32s-.24.13-.34,0-.06-.13,0-.25S29.82,29.64,29.94,29.76Z" style="fill:#b9f5d8"/><path d="M481.18,20.76a2.72,2.72,0,0,1-2-.7,2.69,2.69,0,0,1-.7-2v-.77a2.72,2.72,0,0,1,.7-2,2.72,2.72,0,0,1,2-.7h.59a2.72,2.72,0,0,1,2,.7,2.72,2.72,0,0,1,.7,2v.77a2.69,2.69,0,0,1-.7,2,2.72,2.72,0,0,1-2,.7Zm0,17.69a2.45,2.45,0,0,1-2.71-2.71V35a2.45,2.45,0,0,1,2.71-2.71h.59A2.45,2.45,0,0,1,484.48,35v.77a2.45,2.45,0,0,1-2.71,2.71Z" style="fill:#b9f5d8"/><path d="M493.53,20.76a2.72,2.72,0,0,1-2-.7,2.69,2.69,0,0,1-.7-2v-.77a2.72,2.72,0,0,1,.7-2,2.72,2.72,0,0,1,2-.7h.59a2.45,2.45,0,0,1,2.71,2.71v.77a2.45,2.45,0,0,1-2.71,2.71Zm0,17.69a2.45,2.45,0,0,1-2.71-2.71V35a2.45,2.45,0,0,1,2.71-2.71h.59A2.45,2.45,0,0,1,496.83,35v.77a2.45,2.45,0,0,1-2.71,2.71Z" style="fill:#b9f5d8"/><path d="M228.37,9.93a12.57,12.57,0,0,1,5.88,1.29,11.38,11.38,0,0,1,4.1,3.53,15.51,15.51,0,0,1,2.37,5.08,22.38,22.38,0,0,1,.77,5.93,22,22,0,0,1-1.38,7.94,12.62,12.62,0,0,1-4.27,5.75,12.22,12.22,0,0,1-7.47,2.14H216.61a.92.92,0,0,1-.9-.9V10.83a.92.92,0,0,1,.9-.9Zm-.45,29.86a11.12,11.12,0,0,0,6.72-1.88,10.86,10.86,0,0,0,3.75-5.07,20,20,0,0,0,1.2-7.08,21.35,21.35,0,0,0-.65-5.29,13.63,13.63,0,0,0-2.06-4.5,9.8,9.8,0,0,0-3.62-3.1,11.57,11.57,0,0,0-5.34-1.13H217.33l.28-.36V40.19l-.28-.4Z" style="fill:#1d1e18"/><path d="M248.41,15.22a1.62,1.62,0,0,1-1.15-.41,1.34,1.34,0,0,1-.43-1v-.36a1.34,1.34,0,0,1,.45-1,1.71,1.71,0,0,1,1.18-.41,1.5,1.5,0,0,1,1.06.41,1.36,1.36,0,0,1,.43,1v.36a1.34,1.34,0,0,1-.43,1A1.55,1.55,0,0,1,248.41,15.22Zm.91,25.47a.86.86,0,0,1-.27.63.89.89,0,0,1-.64.27.83.83,0,0,1-.65-.27.88.88,0,0,1-.25-.63V19.2a.91.91,0,0,1,1.56-.63.93.93,0,0,1,.25.63Z" style="fill:#1d1e18"/><path d="M266.37,18.3a9.93,9.93,0,0,1,3.8.72,10.89,10.89,0,0,1,3.1,1.9,9.5,9.5,0,0,1,2.08,2.53,5.53,5.53,0,0,1,.75,2.67l-.59-1.67V19.93a.89.89,0,0,1,.25-.64.87.87,0,0,1,.66-.27.83.83,0,0,1,.65.27.89.89,0,0,1,.25.64V39.38a12.1,12.1,0,0,1-1.42,6A9.91,9.91,0,0,1,272,49.29a12,12,0,0,1-5.79,1.35,14.78,14.78,0,0,1-3.64-.47A12,12,0,0,1,259.5,49c-.82-.48-1.23-1-1.23-1.54a.84.84,0,0,1,.21-.59.7.7,0,0,1,.56-.22,1.07,1.07,0,0,1,.84.49,3.26,3.26,0,0,0,1.38.91l1.11.36a12.05,12.05,0,0,0,1.7.39,14.86,14.86,0,0,0,2.21.15,8.82,8.82,0,0,0,6.77-2.64,9.75,9.75,0,0,0,2.46-6.9V34.9l.45,0a9.7,9.7,0,0,1-1.58,3.31A9.07,9.07,0,0,1,272,40.44a9.83,9.83,0,0,1-2.81,1.22,11,11,0,0,1-2.83.39,10.2,10.2,0,0,1-5.58-1.56,11.19,11.19,0,0,1-3.92-4.26,12.67,12.67,0,0,1-1.44-6.08,12.74,12.74,0,0,1,1.44-6.09,11.11,11.11,0,0,1,3.92-4.23A10.35,10.35,0,0,1,266.37,18.3Zm.09,1.72a8.67,8.67,0,0,0-4.72,1.31,9.11,9.11,0,0,0-3.31,3.59,11.11,11.11,0,0,0-1.2,5.23,11.1,11.1,0,0,0,1.2,5.2A9.25,9.25,0,0,0,261.74,39a8.61,8.61,0,0,0,4.72,1.34A8.77,8.77,0,0,0,271.17,39a9.14,9.14,0,0,0,3.3-3.58,11,11,0,0,0,1.22-5.31,11.08,11.08,0,0,0-1.22-5.32,9.05,9.05,0,0,0-3.3-3.55A8.93,8.93,0,0,0,266.46,20Z" style="fill:#1d1e18"/><path d="M285.73,15.22a1.62,1.62,0,0,1-1.15-.41,1.34,1.34,0,0,1-.43-1v-.36a1.34,1.34,0,0,1,.45-1,1.73,1.73,0,0,1,1.18-.41,1.48,1.48,0,0,1,1.06.41,1.36,1.36,0,0,1,.43,1v.36a1.34,1.34,0,0,1-.43,1A1.53,1.53,0,0,1,285.73,15.22Zm.91,25.47a.92.92,0,0,1-.91.9.83.83,0,0,1-.65-.27.88.88,0,0,1-.25-.63V19.2a.92.92,0,0,1,.9-.9.84.84,0,0,1,.66.27.88.88,0,0,1,.25.63Z" style="fill:#1d1e18"/><path d="M292.07,18.84h10.49a.79.79,0,0,1,.61.27.84.84,0,0,1,.25.59.82.82,0,0,1-.25.61.81.81,0,0,1-.61.25H292.07a.93.93,0,0,1-.86-.86.79.79,0,0,1,.27-.61A.84.84,0,0,1,292.07,18.84Zm4.61-6.65a.87.87,0,0,1,.66.27.93.93,0,0,1,.25.63V36.66a4.87,4.87,0,0,0,.38,2.2,1.78,1.78,0,0,0,1,.9,3.41,3.41,0,0,0,1.14.21,1.45,1.45,0,0,0,.54-.09,1.45,1.45,0,0,1,.54-.09.71.71,0,0,1,.54.24.85.85,0,0,1,.23.57c0,.27-.17.5-.52.7a2.56,2.56,0,0,1-1.29.29c-.18,0-.51,0-1,0a3.74,3.74,0,0,1-1.5-.4,3.15,3.15,0,0,1-1.33-1.41,6.6,6.6,0,0,1-.54-3V13.09a.92.92,0,0,1,.9-.9Z" style="fill:#1d1e18"/><path d="M327.13,19a.83.83,0,0,1,.65.27.89.89,0,0,1,.25.64V40.69a.91.91,0,0,1-1.56.63.93.93,0,0,1-.25-.63V34.27l.73-.59a6.64,6.64,0,0,1-.73,2.94,9.38,9.38,0,0,1-2,2.71,9.92,9.92,0,0,1-3,2,9.21,9.21,0,0,1-3.71.75,9.52,9.52,0,0,1-5.41-1.59,10.83,10.83,0,0,1-3.73-4.29A13.42,13.42,0,0,1,307,30.06,13,13,0,0,1,308.42,24a10.67,10.67,0,0,1,3.76-4.16,9.74,9.74,0,0,1,5.36-1.51,9.54,9.54,0,0,1,3.66.7,9.14,9.14,0,0,1,3,2,9,9,0,0,1,2,3,9.17,9.17,0,0,1,.73,3.69l-.73-1.14V19.93a.93.93,0,0,1,.25-.64A.87.87,0,0,1,327.13,19Zm-9.5,21.31A7.93,7.93,0,0,0,322.15,39a9,9,0,0,0,3.12-3.66,11.82,11.82,0,0,0,1.13-5.27A11.23,11.23,0,0,0,325.27,25a9.11,9.11,0,0,0-3.12-3.62A7.92,7.92,0,0,0,317.63,20a8.14,8.14,0,0,0-4.48,1.28A8.92,8.92,0,0,0,310,24.86a11.25,11.25,0,0,0-1.16,5.2A12,12,0,0,0,310,35.33,9.18,9.18,0,0,0,313.1,39,8,8,0,0,0,317.63,40.33Z" style="fill:#1d1e18"/><path d="M337.58,40.69a.86.86,0,0,1-.27.63.89.89,0,0,1-.64.27.83.83,0,0,1-.65-.27.88.88,0,0,1-.25-.63V9a.91.91,0,0,1,1.56-.63.93.93,0,0,1,.25.63Z" style="fill:#1d1e18"/><path d="M365.85,42.05a8.21,8.21,0,0,1-5.2-1.77,10.72,10.72,0,0,1-3.39-4.52,1.48,1.48,0,0,1-.09-.45.68.68,0,0,1,.29-.61,1,1,0,0,1,.61-.21.83.83,0,0,1,.54.16,1.46,1.46,0,0,1,.32.43,8.31,8.31,0,0,0,2.72,3.71,6.6,6.6,0,0,0,4.2,1.45,8.19,8.19,0,0,0,4-1,6.8,6.8,0,0,0,2.65-2.67,8.25,8.25,0,0,0,.95-4V10.83a.86.86,0,0,1,.27-.63,1,1,0,0,1,.72-.27.87.87,0,0,1,.66.27.93.93,0,0,1,.25.63V32.59a10,10,0,0,1-1.2,5,8.36,8.36,0,0,1-3.35,3.32A10.29,10.29,0,0,1,365.85,42.05Z" style="fill:#1d1e18"/><path d="M400.73,19a.87.87,0,0,1,.66.27.93.93,0,0,1,.25.64V33.09c0,2.93-.83,5.12-2.47,6.58a10.75,10.75,0,0,1-13,0q-2.46-2.19-2.46-6.58V19.93a.91.91,0,0,1,1.56-.64.93.93,0,0,1,.25.64V33.09a6.88,6.88,0,0,0,1.92,5.25,7.33,7.33,0,0,0,5.22,1.81,7.41,7.41,0,0,0,5.27-1.81,6.85,6.85,0,0,0,1.93-5.25V19.93a.89.89,0,0,1,.25-.64A.83.83,0,0,1,400.73,19Z" style="fill:#1d1e18"/><path d="M418.78,18.75a8.28,8.28,0,0,1,4.64,1.38,7,7,0,0,1,2.87,4.32l-.59.41.23-.86A6.4,6.4,0,0,1,428,21.33a12.19,12.19,0,0,1,3.3-1.88,9.82,9.82,0,0,1,3.55-.7,7.88,7.88,0,0,1,4.48,1.18,7,7,0,0,1,2.6,3.14,11.26,11.26,0,0,1,.84,4.46V40.69a.93.93,0,0,1-.25.63.87.87,0,0,1-.66.27.83.83,0,0,1-.65-.27.88.88,0,0,1-.25-.63v-13a9.79,9.79,0,0,0-.66-3.65,5.65,5.65,0,0,0-2-2.62,6.11,6.11,0,0,0-3.6-1,8.07,8.07,0,0,0-3.8,1,8.7,8.7,0,0,0-3.05,2.62,6.09,6.09,0,0,0-1.2,3.65v13a.93.93,0,0,1-.25.63.87.87,0,0,1-.66.27.83.83,0,0,1-.65-.27.88.88,0,0,1-.25-.63V27.48a9.9,9.9,0,0,0-.61-3.53,5.49,5.49,0,0,0-1.93-2.53,5.74,5.74,0,0,0-3.48-1,7.68,7.68,0,0,0-3.69,1,8.74,8.74,0,0,0-3,2.53A5.81,5.81,0,0,0,411,27.48V40.69a.91.91,0,0,1-1.56.63.92.92,0,0,1-.24-.63V19.93a.91.91,0,0,1,1.56-.64.93.93,0,0,1,.24.64v4.93l-1.35,2.3a6.53,6.53,0,0,1,.77-3.07,9.33,9.33,0,0,1,2.06-2.69,10.33,10.33,0,0,1,2.94-1.93A8.45,8.45,0,0,1,418.78,18.75Z" style="fill:#1d1e18"/><path d="M460.76,18.75a9.9,9.9,0,0,1,5.39,1.49,10.72,10.72,0,0,1,3.73,4.1,12.46,12.46,0,0,1,1.38,5.94,12.53,12.53,0,0,1-1.38,5.93,10.68,10.68,0,0,1-3.76,4.14,10.07,10.07,0,0,1-8.23,1.09,9.81,9.81,0,0,1-4.7-3.19,13.36,13.36,0,0,1-1.7-2.67l.59-.64v14.8a.93.93,0,0,1-.25.63.92.92,0,0,1-1.56-.63V19.65a.88.88,0,0,1,.25-.63.83.83,0,0,1,.65-.27.87.87,0,0,1,.66.27.93.93,0,0,1,.25.63v5.79l-.59-.31a11.13,11.13,0,0,1,1.58-2.9,8.66,8.66,0,0,1,2.17-2,9.3,9.3,0,0,1,2.63-1.13A11.56,11.56,0,0,1,460.76,18.75Zm-.09,1.72a8.22,8.22,0,0,0-4.54,1.26A8.77,8.77,0,0,0,453,25.2a10.84,10.84,0,0,0-1.13,5.08A11,11,0,0,0,453,35.37a8.62,8.62,0,0,0,3.1,3.51,8.68,8.68,0,0,0,9,0,8.81,8.81,0,0,0,3.12-3.51,10.91,10.91,0,0,0,1.16-5.09,10.78,10.78,0,0,0-1.16-5.06,9,9,0,0,0-3.12-3.49A8.15,8.15,0,0,0,460.67,20.47Z" style="fill:#1d1e18"/><path d="M191.3,20.76a2.73,2.73,0,0,1-2-.7,2.69,2.69,0,0,1-.7-2v-.77a2.72,2.72,0,0,1,.7-2,2.73,2.73,0,0,1,2-.7h.58a2.73,2.73,0,0,1,2,.7,2.76,2.76,0,0,1,.7,2v.77a2.73,2.73,0,0,1-.7,2,2.73,2.73,0,0,1-2,.7Zm0,17.69a2.45,2.45,0,0,1-2.72-2.71V35a2.45,2.45,0,0,1,2.72-2.71h.58A2.45,2.45,0,0,1,194.6,35v.77a2.76,2.76,0,0,1-.7,2,2.73,2.73,0,0,1-2,.7Z" style="fill:#b9f5d8"/><path d="M203.65,20.76a2.73,2.73,0,0,1-2-.7,2.69,2.69,0,0,1-.7-2v-.77a2.72,2.72,0,0,1,.7-2,2.73,2.73,0,0,1,2-.7h.58a2.73,2.73,0,0,1,2,.7,2.76,2.76,0,0,1,.7,2v.77a2.73,2.73,0,0,1-.7,2,2.73,2.73,0,0,1-2,.7Zm0,17.69a2.45,2.45,0,0,1-2.72-2.71V35a2.45,2.45,0,0,1,2.72-2.71h.58A2.45,2.45,0,0,1,207,35v.77a2.76,2.76,0,0,1-.7,2,2.73,2.73,0,0,1-2,.7Z" style="fill:#b9f5d8"/><path d="M82.93,42.05a11.22,11.22,0,0,1-4.8-1,9.26,9.26,0,0,1-3.62-3A2.86,2.86,0,0,1,74,36.44a2.4,2.4,0,0,1,.88-1.9,2.65,2.65,0,0,1,1.74-.77,2.44,2.44,0,0,1,1.34.41,6.12,6.12,0,0,1,1.2,1,6,6,0,0,0,1.78,1.15,5.52,5.52,0,0,0,2,.34,5,5,0,0,0,2.53-.68,5.41,5.41,0,0,0,1.9-1.81,4.46,4.46,0,0,0,.72-2.44v-19a2.58,2.58,0,0,1,.86-2,2.86,2.86,0,0,1,2-.79,2.69,2.69,0,0,1,2,.79,2.72,2.72,0,0,1,.77,2v19a9.53,9.53,0,0,1-1.45,5.11,11.15,11.15,0,0,1-3.89,3.8A10.57,10.57,0,0,1,82.93,42.05Z" style="fill:#1d1e18"/><path d="M111.47,17,101.7,40a2.8,2.8,0,0,1-1,1.34,2.42,2.42,0,0,1-1.43.47,2.29,2.29,0,0,1-1.81-.68,2.46,2.46,0,0,1-.58-1.67,3,3,0,0,1,.13-.86l11.27-27a3,3,0,0,1,1.1-1.41,2.39,2.39,0,0,1,1.61-.4,2.65,2.65,0,0,1,1.52.47,2.7,2.7,0,0,1,1,1.34l11.13,26.51a3,3,0,0,1,.23,1.08,2.58,2.58,0,0,1-2.53,2.67,2.35,2.35,0,0,1-1.47-.5,3.19,3.19,0,0,1-1-1.35L110.16,17.3ZM103.1,34.49l2.49-5.2h12.22l.86,5.2Z" style="fill:#1d1e18"/><path d="M150.7,11.47a2.42,2.42,0,0,1,1.38,1.85,2.83,2.83,0,0,1-.66,2.31,2.06,2.06,0,0,1-1.52.9,3.52,3.52,0,0,1-1.87-.36,11.86,11.86,0,0,0-2.29-.77,11.36,11.36,0,0,0-2.51-.27,11.69,11.69,0,0,0-4.36.77,9,9,0,0,0-3.28,2.19,9.37,9.37,0,0,0-2.06,3.37,12.55,12.55,0,0,0-.7,4.3,13.19,13.19,0,0,0,.79,4.8A9.55,9.55,0,0,0,135.81,34a8.87,8.87,0,0,0,3.3,2,12.49,12.49,0,0,0,4.12.66,13.35,13.35,0,0,0,2.44-.23,8.47,8.47,0,0,0,2.36-.81,3.22,3.22,0,0,1,1.87-.32,2.37,2.37,0,0,1,1.56,1,2.7,2.7,0,0,1,.66,2.33,2.4,2.4,0,0,1-1.38,1.74,15.33,15.33,0,0,1-2.42,1,18.58,18.58,0,0,1-2.51.58,15.76,15.76,0,0,1-2.58.21,18.29,18.29,0,0,1-6.17-1,15.76,15.76,0,0,1-5.21-3.08,14.18,14.18,0,0,1-3.59-5.09,17.67,17.67,0,0,1-1.32-7.08,16.83,16.83,0,0,1,1.2-6.42,14.83,14.83,0,0,1,3.4-5.09,15.68,15.68,0,0,1,5.18-3.35,17.29,17.29,0,0,1,6.51-1.2,16.76,16.76,0,0,1,3.89.45A16,16,0,0,1,150.7,11.47Z" style="fill:#1d1e18"/><path d="M167.07,42.05a19.34,19.34,0,0,1-5.7-.79,13.67,13.67,0,0,1-4.84-2.79,3.46,3.46,0,0,1-.9-1.13,2.8,2.8,0,0,1-.32-1.26,2.59,2.59,0,0,1,.75-1.84,2.48,2.48,0,0,1,1.87-.79,2.39,2.39,0,0,1,1.54.54,14.28,14.28,0,0,0,3.42,2.13,10.69,10.69,0,0,0,4.18.72,8.73,8.73,0,0,0,3.08-.52,5.92,5.92,0,0,0,2.26-1.4,2.82,2.82,0,0,0,.86-2,3.43,3.43,0,0,0-.81-2.31A6.24,6.24,0,0,0,170,29a19.08,19.08,0,0,0-4.25-1,18.7,18.7,0,0,1-4.3-1.11,10,10,0,0,1-3.1-1.9,7.43,7.43,0,0,1-1.88-2.72,9.25,9.25,0,0,1-.63-3.5,8.28,8.28,0,0,1,1.51-5,9.46,9.46,0,0,1,4.1-3.17,14.62,14.62,0,0,1,5.7-1.09,16.27,16.27,0,0,1,5.45.89,12.59,12.59,0,0,1,4.09,2.24A3,3,0,0,1,178,15a2.57,2.57,0,0,1-.77,1.81,2.41,2.41,0,0,1-1.81.82,2,2,0,0,1-1.23-.41,8.33,8.33,0,0,0-1.94-1.2,18.31,18.31,0,0,0-2.58-1,9.92,9.92,0,0,0-5.81.11,4.65,4.65,0,0,0-2,1.36,3.15,3.15,0,0,0-.67,2,3.21,3.21,0,0,0,.79,2.24,5.26,5.26,0,0,0,2.28,1.4,25.88,25.88,0,0,0,3.58.93,36.14,36.14,0,0,1,4.77,1.18A11,11,0,0,1,176,26a6.55,6.55,0,0,1,2,2.67,10.07,10.07,0,0,1,.68,3.91,8.08,8.08,0,0,1-1.63,5.07,10.47,10.47,0,0,1-4.28,3.26A14.45,14.45,0,0,1,167.07,42.05Z" style="fill:#1d1e18"/></g></svg>